<svg width="128" height="128" viewBox="0 0 128 128" fill="none" xmlns="http://www.w3.org/2000/svg">
  <rect width="128" height="128" rx="28" fill="#09090C"/>
  <rect x="14" y="14" width="100" height="100" rx="22" fill="url(#panelGradient)" stroke="#FFFFFF" stroke-opacity="0.12"/>
  <ellipse cx="64" cy="88" rx="24" ry="8" fill="#F5CC80" opacity="0.1"/>
  <g transform="translate(15 11) scale(4.55)" stroke="#F5CC80" stroke-width="2" stroke-linecap="round" stroke-linejoin="round">
    <path d="M5 20a2 2 0 0 1 2-2h10a2 2 0 0 1 2 2v1a1 1 0 0 1-1 1H6a1 1 0 0 1-1-1z"/>
    <path d="M16.5 18c1-2 2.5-5 2.5-9a7 7 0 0 0-7-7H6.635a1 1 0 0 0-.768 1.64L7 5l-2.32 5.802a2 2 0 0 0 .95 2.526l2.87 1.456"/>
    <path d="M9.713 12.185 7 18"/>
  </g>
  <defs>
    <linearGradient id="panelGradient" x1="16" y1="10" x2="113" y2="118" gradientUnits="userSpaceOnUse">
      <stop stop-color="#141620"/>
      <stop offset="1" stop-color="#0D0E13"/>
    </linearGradient>
  </defs>
</svg>
